<svg width="32" height="32" viewBox="0 0 32 32" fill="none" xmlns="http://www.w3.org/2000/svg">
<path d="M17.238 16L23.618 9.61999C23.961 9.27699 23.961 8.72299 23.618 8.38199C23.278 8.03999 22.723 8.03999 22.382 8.38199L16 14.76L9.62003 8.37999C9.27703 8.03699 8.72303 8.03699 8.38003 8.37999C8.03703 8.72299 8.04003 9.27499 8.38003 9.61699L14.763 16L8.38303 22.38C8.04003 22.723 8.04003 23.277 8.38103 23.62C8.72303 23.96 9.27703 23.96 9.61903 23.62L16 17.237L22.38 23.617C22.723 23.96 23.277 23.959 23.618 23.617C23.96 23.275 23.958 22.721 23.618 22.38L17.238 16Z" fill="#434D61"/>
</svg>
